<svg version="1.1" baseProfile="full" width="1440" height="22" xmlns="http://www.w3.org/2000/svg">
    <style>
        .line { stroke:#6c757d; stroke-width:2}
        .text { stroke:#6c757d; stroke-width:1}
        <!--.text { stroke:rgb(255,0,0);stroke-width:1}-->

        /* Обратите внимание, что цвет текста задается с помощью *
        * fill свойства, а свойство color используется только для HTML */
        .Rrrrr { font: italic 40px serif; fill: red; }
    </style>
    <line x1="0" y1="20" x2="1440" y2="20" class="line"/>

    <line x1="40" x2="40" y1="14" y2="20" class="line"/>
    <line x1="100" x2="100" y1="14" y2="20" class="line"/>
    <line x1="160" x2="160" y1="14" y2="20" class="line"/>
    <line x1="220" x2="220" y1="14" y2="20" class="line"/>
    <line x1="280" x2="280" y1="14" y2="20" class="line"/>
    <line x1="340" x2="340" y1="14" y2="20" class="line"/>
    <line x1="400" x2="400" y1="14" y2="20" class="line"/>
    <line x1="460" x2="460" y1="14" y2="20" class="line"/>
    <line x1="520" x2="520" y1="14" y2="20" class="line"/>
    <line x1="580" x2="580" y1="14" y2="20" class="line"/>
    <line x1="640" x2="640" y1="14" y2="20" class="line"/>
    <line x1="700" x2="700" y1="14" y2="20" class="line"/>
    <line x1="760" x2="760" y1="14" y2="20" class="line"/>
    <line x1="820" x2="820" y1="14" y2="20" class="line"/>
    <line x1="880" x2="880" y1="14" y2="20" class="line"/>
    <line x1="940" x2="940" y1="14" y2="20" class="line"/>
    <line x1="1000" x2="1000" y1="14" y2="20" class="line"/>
    <line x1="1060" x2="1060" y1="14" y2="20" class="line"/>
    <line x1="1120" x2="1120" y1="14" y2="20" class="line"/>
    <line x1="1180" x2="1180" y1="14" y2="20" class="line"/>
    <line x1="1240" x2="1240" y1="14" y2="20" class="line"/>
    <line x1="1300" x2="1300" y1="14" y2="20" class="line"/>
    <line x1="1360" x2="1360" y1="14" y2="20" class="line"/>
    <line x1="1420" x2="1420" y1="14" y2="20" class="line"/>

    <text x="36" y="12" class="text">8</text>
    <text x="96" y="12" class="text">9</text>
    <text x="152" y="12" class="text">10</text>
    <text x="212" y="12" class="text">11</text>
    <text x="272" y="12" class="text">12</text>
    <text x="332" y="12" class="text">13</text>
    <text x="392" y="12" class="text">14</text>
    <text x="452" y="12" class="text">15</text>
    <text x="512" y="12" class="text">16</text>
    <text x="572" y="12" class="text">17</text>
    <text x="632" y="12" class="text">18</text>
    <text x="692" y="12" class="text">19</text>
    <text x="752" y="12" class="text">20</text>
    <text x="812" y="12" class="text">21</text>
    <text x="872" y="12" class="text">22</text>
    <text x="932" y="12" class="text">23</text>
    <text x="996" y="12" class="text">0</text>
    <text x="1056" y="12" class="text">1</text>
    <text x="1116" y="12" class="text">2</text>
    <text x="1176" y="12" class="text">3</text>
    <text x="1236" y="12" class="text">4</text>
    <text x="1296" y="12" class="text">5</text>
    <text x="1356" y="12" class="text">6</text>
    <text x="1416" y="12" class="text">7</text>
</svg>